ply
format ascii 1.0
comment VCGLIB generated
element vertex 100
property float x
property float y
property float z
element face 162
property list uchar int vertex_indices
end_header
990.0001 -990.0001 -8.654855e-05 
745.5556 -990.0001 -6.517854e-05 
501.1111 -990.0001 -4.380852e-05 
256.6666 -990.0001 -2.243851e-05 
12.22221 -990.0001 -1.0685e-06 
-232.2222 -990.0001 2.030151e-05 
-476.6667 -990.0001 4.167153e-05 
-721.1111 -990.0001 6.304155e-05 
-965.5556 -990.0001 8.441155e-05 
-1210 -990.0001 0.0001057816 
990.0001 -745.5556 -8.654855e-05 
745.5556 -745.5556 -6.517854e-05 
501.1111 -745.5556 -4.380852e-05 
256.6666 -745.5556 -2.243851e-05 
12.22221 -745.5556 -1.0685e-06 
-232.2222 -745.5556 2.030151e-05 
-476.6667 -745.5556 4.167153e-05 
-721.1111 -745.5556 6.304155e-05 
-965.5556 -745.5556 8.441155e-05 
-1210 -745.5556 0.0001057816 
990.0001 -501.1111 -8.654855e-05 
745.5556 -501.1111 -6.517854e-05 
501.1111 -501.1111 -4.380852e-05 
256.6666 -501.1111 -2.243851e-05 
12.22221 -501.1111 -1.0685e-06 
-232.2222 -501.1111 2.030151e-05 
-476.6667 -501.1111 4.167153e-05 
-721.1111 -501.1111 6.304155e-05 
-965.5556 -501.1111 8.441155e-05 
-1210 -501.1111 0.0001057816 
990.0001 -256.6666 -8.654855e-05 
745.5556 -256.6666 -6.517854e-05 
501.1111 -256.6666 -4.380852e-05 
256.6666 -256.6666 -2.243851e-05 
12.22221 -256.6666 -1.0685e-06 
-232.2222 -256.6666 2.030151e-05 
-476.6667 -256.6666 4.167153e-05 
-721.1111 -256.6666 6.304155e-05 
-965.5556 -256.6666 8.441155e-05 
-1210 -256.6666 0.0001057816 
990.0001 -12.22221 -8.654855e-05 
745.5556 -12.22221 -6.517854e-05 
501.1111 -12.22221 -4.380852e-05 
256.6666 -12.22221 -2.243851e-05 
12.22221 -12.22221 -1.0685e-06 
-232.2222 -12.22221 2.030151e-05 
-476.6667 -12.22221 4.167153e-05 
-721.1111 -12.22221 6.304155e-05 
-965.5556 -12.22221 8.441155e-05 
-1210 -12.22221 0.0001057816 
990.0001 232.2222 -8.654855e-05 
745.5556 232.2222 -6.517854e-05 
501.1111 232.2222 -4.380852e-05 
256.6666 232.2222 -2.243851e-05 
12.22221 232.2222 -1.0685e-06 
-232.2222 232.2222 2.030151e-05 
-476.6667 232.2222 4.167153e-05 
-721.1111 232.2222 6.304155e-05 
-965.5556 232.2222 8.441155e-05 
-1210 232.2222 0.0001057816 
990.0001 476.6667 -8.654855e-05 
745.5556 476.6667 -6.517854e-05 
501.1111 476.6667 -4.380852e-05 
256.6666 476.6667 -2.243851e-05 
12.22221 476.6667 -1.0685e-06 
-232.2222 476.6667 2.030151e-05 
-476.6667 476.6667 4.167153e-05 
-721.1111 476.6667 6.304155e-05 
-965.5556 476.6667 8.441155e-05 
-1210 476.6667 0.0001057816 
990.0001 721.1111 -8.654855e-05 
745.5556 721.1111 -6.517854e-05 
501.1111 721.1111 -4.380852e-05 
256.6666 721.1111 -2.243851e-05 
12.22221 721.1111 -1.0685e-06 
-232.2222 721.1111 2.030151e-05 
-476.6667 721.1111 4.167153e-05 
-721.1111 721.1111 6.304155e-05 
-965.5556 721.1111 8.441155e-05 
-1210 721.1111 0.0001057816 
990.0001 965.5556 -8.654855e-05 
745.5556 965.5556 -6.517854e-05 
501.1111 965.5556 -4.380852e-05 
256.6666 965.5556 -2.243851e-05 
12.22221 965.5556 -1.0685e-06 
-232.2222 965.5556 2.030151e-05 
-476.6667 965.5556 4.167153e-05 
-721.1111 965.5556 6.304155e-05 
-965.5556 965.5556 8.441155e-05 
-1210 965.5556 0.0001057816 
990.0001 1210 -8.654855e-05 
745.5556 1210 -6.517854e-05 
501.1111 1210 -4.380852e-05 
256.6666 1210 -2.243851e-05 
12.22221 1210 -1.0685e-06 
-232.2222 1210 2.030151e-05 
-476.6667 1210 4.167153e-05 
-721.1111 1210 6.304155e-05 
-965.5556 1210 8.441155e-05 
-1210 1210 0.0001057816 
3 11 1 0 
3 0 10 11 
3 12 2 1 
3 1 11 12 
3 13 3 2 
3 2 12 13 
3 14 4 3 
3 3 13 14 
3 15 5 4 
3 4 14 15 
3 16 6 5 
3 5 15 16 
3 17 7 6 
3 6 16 17 
3 18 8 7 
3 7 17 18 
3 19 9 8 
3 8 18 19 
3 21 11 10 
3 10 20 21 
3 22 12 11 
3 11 21 22 
3 23 13 12 
3 12 22 23 
3 24 14 13 
3 13 23 24 
3 25 15 14 
3 14 24 25 
3 26 16 15 
3 15 25 26 
3 27 17 16 
3 16 26 27 
3 28 18 17 
3 17 27 28 
3 29 19 18 
3 18 28 29 
3 31 21 20 
3 20 30 31 
3 32 22 21 
3 21 31 32 
3 33 23 22 
3 22 32 33 
3 34 24 23 
3 23 33 34 
3 35 25 24 
3 24 34 35 
3 36 26 25 
3 25 35 36 
3 37 27 26 
3 26 36 37 
3 38 28 27 
3 27 37 38 
3 39 29 28 
3 28 38 39 
3 41 31 30 
3 30 40 41 
3 42 32 31 
3 31 41 42 
3 43 33 32 
3 32 42 43 
3 44 34 33 
3 33 43 44 
3 45 35 34 
3 34 44 45 
3 46 36 35 
3 35 45 46 
3 47 37 36 
3 36 46 47 
3 48 38 37 
3 37 47 48 
3 49 39 38 
3 38 48 49 
3 51 41 40 
3 40 50 51 
3 52 42 41 
3 41 51 52 
3 53 43 42 
3 42 52 53 
3 54 44 43 
3 43 53 54 
3 55 45 44 
3 44 54 55 
3 56 46 45 
3 45 55 56 
3 57 47 46 
3 46 56 57 
3 58 48 47 
3 47 57 58 
3 59 49 48 
3 48 58 59 
3 61 51 50 
3 50 60 61 
3 62 52 51 
3 51 61 62 
3 63 53 52 
3 52 62 63 
3 64 54 53 
3 53 63 64 
3 65 55 54 
3 54 64 65 
3 66 56 55 
3 55 65 66 
3 67 57 56 
3 56 66 67 
3 68 58 57 
3 57 67 68 
3 69 59 58 
3 58 68 69 
3 71 61 60 
3 60 70 71 
3 72 62 61 
3 61 71 72 
3 73 63 62 
3 62 72 73 
3 74 64 63 
3 63 73 74 
3 75 65 64 
3 64 74 75 
3 76 66 65 
3 65 75 76 
3 77 67 66 
3 66 76 77 
3 78 68 67 
3 67 77 78 
3 79 69 68 
3 68 78 79 
3 81 71 70 
3 70 80 81 
3 82 72 71 
3 71 81 82 
3 83 73 72 
3 72 82 83 
3 84 74 73 
3 73 83 84 
3 85 75 74 
3 74 84 85 
3 86 76 75 
3 75 85 86 
3 87 77 76 
3 76 86 87 
3 88 78 77 
3 77 87 88 
3 89 79 78 
3 78 88 89 
3 91 81 80 
3 80 90 91 
3 92 82 81 
3 81 91 92 
3 93 83 82 
3 82 92 93 
3 94 84 83 
3 83 93 94 
3 95 85 84 
3 84 94 95 
3 96 86 85 
3 85 95 96 
3 97 87 86 
3 86 96 97 
3 98 88 87 
3 87 97 98 
3 99 89 88 
3 88 98 99 
